<?xml version="1.0" encoding="UTF-8" standalone="no"?>
<svg width="23px" height="17px" viewBox="0 0 23 17" version="1.1" xmlns="http://www.w3.org/2000/svg" xmlns:xlink="http://www.w3.org/1999/xlink" xmlns:sketch="http://www.bohemiancoding.com/sketch/ns">
    <!-- Generator: Sketch 3.2.2 (9983) - http://www.bohemiancoding.com/sketch -->
    <title>idcard</title>
    <desc>Created with Sketch.</desc>
    <defs></defs>
    <g id="Page-1" stroke="none" stroke-width="1" fill="none" fill-rule="evenodd" sketch:type="MSPage">
        <g id="680x680" sketch:type="MSArtboardGroup" transform="translate(-128.000000, -212.000000)" fill="#FFFFFF">
            <g id="Row-3" sketch:type="MSLayerGroup" transform="translate(49.000000, 208.000000)">
                <path d="M100.505062,4 L80.4939079,4 C79.6686526,4 79,4.66101492 79,5.47684381 L79,19.5231562 C79,20.3389851 79.6686526,21 80.4939079,21 L100.505062,21 C101.330317,21 102,20.3389851 102,19.5231562 L102,5.47684381 C102,4.66101492 101.330317,4 100.505062,4 L100.505062,4 Z M88.0489608,17.6755737 L85.7565848,17.6755737 L83.4652392,17.6755737 C82.9449471,17.6755737 82.1732664,17.4565934 82.1732664,16.5898388 C82.1732664,15.1333653 84.4975811,15.5468816 84.4975811,14.0476305 C84.4975811,13.1218022 83.0016126,12.2682883 83.0016126,10.1202444 C83.0016126,8.30627284 84.2276474,7.26433407 85.7565848,7.26433407 C87.2865526,7.26433407 88.5115571,8.30627284 88.5115571,10.1202444 C88.5115571,12.2682883 87.0166189,13.1218022 87.0166189,14.0476305 C87.0166189,15.5468816 89.3409335,15.1333653 89.3409335,16.5898388 C89.3409335,17.4565934 88.5682225,17.6755737 88.0489608,17.6755737 L88.0489608,17.6755737 Z M98.700009,16.5755797 C98.700009,17.0267809 98.330138,17.3924271 97.8737233,17.3924271 L92.5935316,17.3924271 C92.137117,17.3924271 91.7662157,17.0267809 91.7662157,16.5755797 L91.7662157,16.363729 C91.7662157,15.9125277 92.137117,15.5468816 92.5935316,15.5468816 L97.8737233,15.5468816 C98.330138,15.5468816 98.700009,15.9125277 98.700009,16.363729 L98.700009,16.5755797 L98.700009,16.5755797 Z M98.700009,12.676712 C98.700009,13.1279132 98.330138,13.4935594 97.8737233,13.4935594 L92.5935316,13.4935594 C92.137117,13.4935594 91.7662157,13.1279132 91.7662157,12.676712 L91.7662157,12.4648613 C91.7662157,12.0136601 92.137117,11.6480139 92.5935316,11.6480139 L97.8737233,11.6480139 C98.330138,11.6480139 98.700009,12.0136601 98.700009,12.4648613 L98.700009,12.676712 L98.700009,12.676712 Z M98.700009,8.76765922 C98.700009,9.21886046 98.330138,9.58348811 97.8737233,9.58348811 L92.5935316,9.58348811 C92.137117,9.58348811 91.7662157,9.21886046 91.7662157,8.76765922 L91.7662157,8.55479001 C91.7662157,8.10358876 92.137117,7.7379426 92.5935316,7.7379426 L97.8737233,7.7379426 C98.330138,7.7379426 98.700009,8.10358876 98.700009,8.55479001 L98.700009,8.76765922 L98.700009,8.76765922 Z" id="idcard" sketch:type="MSShapeGroup"></path>
            </g>
        </g>
    </g>
</svg>